<svg height="511pt" viewBox="0 0 511 511.9994" width="511pt" xmlns="http://www.w3.org/2000/svg"><path d="m477.902344 256.0625c10.773437-21.476562 19.253906-43.066406 25.140625-64.339844 18.457031-66.65625 9.519531-122.472656-25.171875-157.160156-34.6875-34.6875-90.503906-43.628906-157.160156-25.171875-21.273438 5.886719-42.863282 14.371094-64.339844 25.140625-26.71875-13.410156-53.476563-23.222656-79.257813-28.875-59.882812-13.125-110.355469-2.859375-142.117187 28.90625-20.386719 20.386719-32.210938 49.03125-34.1875 82.839844-1.777344 30.414062 4.386718 65.316406 17.820312 101.269531-11.03125 8.722656-18.128906 22.207031-18.128906 37.328125s7.097656 28.605469 18.128906 37.328125c-13.433594 35.953125-19.597656 70.859375-17.820312 101.269531 1.980468 33.808594 13.800781 62.453125 34.1875 82.839844 22.765625 22.769531 54.707031 34.507812 93.289062 34.507812 7.746094 0 15.761719-.472656 24.027344-1.425781 33.082031-3.816406 68.429688-15.085937 104.109375-33.027343 21.460937 10.761718 43.035156 19.234374 64.289063 25.117187 22.683593 6.28125 44.113281 9.390625 63.882812 9.390625 38.316406 0 70.394531-11.679688 93.277344-34.5625 31.765625-31.761719 42.03125-82.234375 28.90625-142.121094-5.652344-25.777344-15.464844-52.535156-28.875-79.253906zm-153.183594-232.191406c61.214844-16.949219 111.832031-9.378906 142.527344 21.316406 30.695312 30.695312 38.265625 81.3125 21.316406 142.527344-4.746094 17.148437-11.265625 34.53125-19.375 51.898437-14.53125-26.058593-32.402344-51.878906-53.109375-76.507812 6.34375-8.085938 10.140625-18.261719 10.140625-29.3125 0-10.683594-3.457031-20.777344-10.003906-29.191407l-11.859375 9.222657c4.476562 5.753906 6.839843 12.660156 6.839843 19.96875 0 17.953125-14.605468 32.554687-32.554687 32.554687s-32.554687-14.601562-32.554687-32.554687 14.605468-32.554688 32.554687-32.554688c5.859375 0 11.605469 1.570313 16.609375 4.546875l7.679688-12.914062c-7.328126-4.355469-15.726563-6.660156-24.289063-6.660156-11.050781 0-21.226563 3.800781-29.308594 10.144531-24.632812-20.707031-50.453125-38.578125-76.511719-53.113281 17.367188-8.105469 34.75-14.625 51.898438-19.371094zm-279.097656 21.316406c40.621094-40.621094 115.105468-39.105469 194.363281-1.988281-38.691406 21.578125-76.640625 50.472656-111.261719 85.089843-25.671875 25.671876-48.265625 53.246094-67.246094 82.03125-4.277343-1.242187-8.777343-1.902343-13.394531-1.902343-5.683593 0-11.132812 1.007812-16.191406 2.839843-26.03125-70.949218-21.15625-131.1875 13.730469-166.070312zm83.054687 451.679688c-33.988281 0-62.882812-9.882813-83.058593-30.054688-34.882813-34.882812-39.761719-95.117188-13.726563-166.070312 5.058594 1.835937 10.507813 2.839843 16.191406 2.839843 4.644531 0 9.128907-.683593 13.378907-1.929687 18.980468 28.796875 41.582031 56.378906 67.261718 82.058594 34.609375 34.605468 72.546875 63.492187 111.226563 85.070312-39.730469 18.59375-77.953125 28.089844-111.273438 28.085938zm127.714844-36.261719c-40.582031-21.316407-80.65625-51.136719-117.042969-87.519531-24.449218-24.453126-46.015625-50.65625-64.199218-77.984376 12.382812-8.597656 20.511718-22.914062 20.511718-39.097656 0-1.410156-.058594-2.835937-.183594-4.238281l-14.96875 1.324219c.085938.960937.128907 1.9375.128907 2.910156 0 17.953125-14.605469 32.554688-32.554688 32.554688s-32.554687-14.601563-32.554687-32.554688 14.605468-32.554688 32.554687-32.554688c12.398438 0 23.558594 6.890626 29.121094 17.980469l13.429687-6.734375c-3.671874-7.324218-9.023437-13.390625-15.453124-17.847656 18.179687-27.304688 39.734374-53.496094 64.167968-77.929688 36.394532-36.394531 76.484375-66.222656 117.078125-87.539062 27.628907 14.542969 55.582031 33.292969 82.664063 56-5.070313 7.5625-8.03125 16.648438-8.03125 26.417969 0 26.234375 21.347656 47.578125 47.582031 47.578125 9.769531 0 18.855469-2.960938 26.417969-8.03125 22.707031 27.082031 41.453125 55.039062 55.996094 82.664062-21.316407 40.59375-51.144532 80.683594-87.535157 117.082032-4.003906 4-8.117187 7.976562-12.273437 11.871093-8.292969-7.015625-19-11.257812-30.6875-11.257812-10.683594 0-20.777344 3.460937-29.191406 10.003906l9.226562 11.859375c5.75-4.472656 12.65625-6.835938 19.964844-6.839844 17.949218 0 32.554687 14.605469 32.554687 32.554688 0 17.953125-14.605469 32.554687-32.554687 32.554687-17.949219 0-32.554688-14.601562-32.554688-32.554687 0-5.859375 1.570313-11.601563 4.546875-16.605469l-12.914062-7.683594c-4.355469 7.328125-6.660157 15.726563-6.660157 24.289063 0 7.539062 1.769532 14.664062 4.902344 21.003906-10.527344 6.71875-21.042968 12.828125-31.488281 18.324219zm210.855469 6.207031c-30.695313 30.699219-81.3125 38.265625-142.527344 21.320312-17.136719-4.746093-34.503906-11.257812-51.859375-19.359374 7.914063-4.421876 15.832031-9.167969 23.726563-14.222657 8.644531 8.820313 20.675781 14.308594 33.972656 14.308594 26.234375 0 47.582031-21.34375 47.582031-47.578125 0-9.136719-2.59375-17.671875-7.074219-24.929688 4.429688-4.144531 8.8125-8.378906 13.074219-12.640624 34.621094-34.625 63.511719-72.574219 85.09375-111.265626 37.117187 79.261719 38.632813 153.746094-1.988281 194.367188zm0 0"/><path d="m379.640625 333.632812h-15.523437v-37.855468c0-16.742188-11.253907-31.609375-27.367188-36.15625l-5.617188-1.582032-4.078124 14.460938 5.617187 1.585938c9.664063 2.726562 16.417969 11.644531 16.417969 21.691406v37.855468h-27.046875v-20.535156h-15.023438v20.535156h-67.617187v15.023438h140.238281zm0 0"/><path d="m281.28125 259.589844 31.3125 8.835937 4.082031-14.464843-30.691406-8.65625v-19.953126c13.894531-9.476562 23.039063-25.425781 23.039063-43.476562v-22.039062c0-28.996094-23.589844-52.589844-52.589844-52.589844-28.996094 0-52.589844 23.59375-52.589844 52.589844v22.039062c0 18.050781 9.144531 34 23.039062 43.476562v19.953126l-50.765624 14.316406c-16.113282 4.546875-27.367188 19.414062-27.367188 36.15625v37.855468h-15.523438v15.023438h91.152344v-15.023438h-18.53125v-20.535156h-15.023437v20.535156h-27.046875v-37.855468c0-10.046875 6.753906-18.964844 16.417968-21.691406l51.390626-14.492188c6.328124 6.921875 15.265624 10.933594 24.847656 10.933594 9.582031 0 18.523437-4.015625 24.847656-10.9375zm-24.847656-137.316406c20.710937 0 37.5625 16.851562 37.5625 37.566406v8.367187l-15.792969-20.890625h-57.179687c5.167968-14.574218 19.085937-25.042968 35.410156-25.042968zm-37.5625 59.601562v-19.53125h51.855468l22.023438 29.125c-4.253906 16.082031-18.921875 27.96875-36.316406 27.96875-20.710938 0-37.5625-16.851562-37.5625-37.5625zm23.039062 66.691406v-16.160156c4.613282 1.332031 9.484375 2.058594 14.523438 2.058594 5.039062 0 9.90625-.726563 14.523437-2.058594v16.160156c-3.53125 4.371094-8.820312 6.933594-14.523437 6.933594s-10.996094-2.5625-14.523438-6.933594zm0 0"/><path d="m296.113281 294.996094-21.164062-5.96875 4.082031-14.460938 21.160156 5.96875zm0 0"/><path d="m329.097656 288.664062-4.082031 14.460938-14.460937-4.078125 4.082031-14.460937zm0 0"/><path d="m371.128906 126.28125h15.023438v15.027344h-15.023438zm0 0"/><path d="m323.046875 413.769531h15.023437v15.023438h-15.023437zm0 0"/><path d="m40.566406 248.488281h15.027344v15.023438h-15.027344zm0 0"/></svg>